<svg width="283" height="90" viewBox="0 0 283 90" fill="none" xmlns="http://www.w3.org/2000/svg">
<g id="text" class="handwriting_text">
<g id="text-path" class="handwriting_text_path">
<path d="M258.844 44.9753C248.306 53.7654 241.789 58.1604 239.291 58.1604C237.843 58.1604 237.119 57.5611 237.119 56.3624C237.119 55.1638 237.643 53.7404 238.692 52.0923C239.791 50.4441 240.865 48.9958 241.914 47.7472C243.012 46.4486 243.562 45.6745 243.562 45.4248C243.562 45.1751 243.487 45.0502 243.337 45.0502C238.692 48.1467 235.92 50.0446 235.021 50.7438C234.172 51.443 232.749 52.5917 230.751 54.1899C228.803 55.7881 227.53 56.787 226.93 57.1865C226.331 57.5861 225.682 57.7858 224.983 57.7858C224.283 57.7858 223.934 57.4862 223.934 56.8869C223.934 56.1876 225.332 53.9901 228.129 50.2943C230.826 46.5985 232.174 44.5258 232.174 44.0763C232.174 43.9764 232.075 43.9265 231.875 43.9265C231.725 43.9265 229.577 45.4498 225.432 48.4963L225.132 47.3726C228.678 44.5258 231.076 42.7029 232.324 41.9038C233.573 41.1047 234.572 40.7051 235.321 40.7051C236.12 40.7051 236.52 41.0797 236.52 41.8288C236.52 42.3283 235.096 44.376 232.249 47.9719C229.453 51.5179 228.054 53.4407 228.054 53.7404C228.054 53.9901 228.129 54.115 228.279 54.115C228.479 54.115 231.325 52.1172 236.819 48.1217C242.363 44.0763 245.734 42.0536 246.933 42.0536C247.282 42.0536 247.607 42.2034 247.907 42.5031C248.256 42.7528 248.431 43.0025 248.431 43.2522C248.431 43.8516 247.108 45.8493 244.461 49.2455C241.814 52.5917 240.49 54.4896 240.49 54.939C240.49 55.3885 240.79 55.6133 241.389 55.6133C242.038 55.6133 243.387 54.9391 245.435 53.5906C249.18 51.1433 252.626 48.6212 255.773 46.0241L257.421 44.6756C257.771 44.4259 258.095 44.3011 258.395 44.3011C258.695 44.3011 258.844 44.4509 258.844 44.7505V44.9753Z" fill="black"/>
<path d="M279.577 44.7506C279.926 44.5009 280.251 44.376 280.551 44.376C280.85 44.376 281 44.5508 281 44.9004V45.0503C276.155 49.0458 272.36 51.9425 269.613 53.7405L254.63 63.4795L249.985 69.9971C242.793 79.836 239.197 85.13 239.197 85.8792C238.398 87.6272 237.624 88.5012 236.875 88.5012C235.926 88.5012 235.451 87.8769 235.451 86.6283C235.451 85.3798 236.076 83.7067 237.324 81.609C238.523 79.5114 239.722 77.8133 240.92 76.5148L248.037 69.0232C248.637 68.0743 249.86 66.3263 251.708 63.7791C253.556 61.232 254.78 59.5339 255.379 58.6849L258.6 53.8903L258.75 53.5906C258.75 53.4907 258.7 53.4408 258.6 53.4408C255.654 55.888 253.206 57.1117 251.259 57.1117C249.311 57.1117 248.337 56.5623 248.337 55.4635C248.337 54.3148 249.086 52.8165 250.584 50.9686C252.083 49.1207 253.881 47.3227 255.978 45.5747C258.126 43.8266 260.473 42.3283 263.02 41.0797C265.617 39.7812 267.89 39.1319 269.838 39.1319C271.835 39.1319 272.834 39.8312 272.834 41.2296C272.834 42.2284 271.885 43.4271 269.987 44.8255C268.14 46.2239 266.991 46.9232 266.541 46.9232C266.142 46.9232 265.942 46.8233 265.942 46.6235C265.942 46.3238 266.142 46.0491 266.541 45.7994C268.239 44.6008 269.088 43.477 269.088 42.4282C269.088 41.3295 268.639 40.7801 267.74 40.7801C265.542 40.7801 262.471 42.653 258.525 46.3987C254.63 50.0946 252.682 52.7166 252.682 54.2649C252.682 54.7144 253.032 54.9391 253.731 54.9391C254.48 54.9391 255.729 54.3648 257.477 53.2161C259.225 52.0174 260.548 50.8687 261.447 49.7699L263.47 47.2228C263.72 46.8732 264.044 46.6984 264.444 46.6984C264.843 46.6984 265.193 46.8233 265.493 47.073C265.792 47.3227 265.942 47.5724 265.942 47.8221L256.877 60.4079L267.965 53.4408C271.261 51.4431 274.557 49.0458 277.854 46.2489L279.577 44.7506Z" fill="black"/>
<path d="M222.325 34.5622C222.824 34.5622 223.199 34.712 223.449 35.0117C223.748 35.3114 223.898 35.7359 223.898 36.2853C223.898 36.8346 223.523 37.5339 222.774 38.3829C222.025 39.2319 221.376 39.6565 220.827 39.6565C220.277 39.6565 219.878 39.5066 219.628 39.207C219.378 38.8574 219.253 38.4828 219.253 38.0832C219.253 37.6337 219.653 36.9345 220.452 35.9856C221.251 35.0367 221.875 34.5622 222.325 34.5622ZM228.543 44.6758C228.942 44.4261 229.242 44.3012 229.442 44.3012C229.691 44.3012 229.816 44.4511 229.816 44.7507V44.9755C230.016 44.9755 228.668 46.0742 225.771 48.2717C222.924 50.4693 219.853 52.6668 216.556 54.8643C213.31 57.0618 211.262 58.1606 210.413 58.1606C208.965 58.1606 208.241 57.5613 208.241 56.3626C208.241 54.9142 209.489 52.1923 211.986 48.1968C214.484 44.1514 216.307 42.1287 217.455 42.1287C218.304 42.1287 218.729 42.4533 218.729 43.1026C218.729 43.7518 217.58 45.5248 215.283 48.4216C212.985 51.3183 211.837 53.391 211.837 54.6396C211.837 55.3388 212.086 55.6884 212.586 55.6884C213.135 55.6884 214.459 54.9892 216.556 53.5907C220.302 51.0936 223.748 48.5714 226.895 46.0243L228.543 44.6758Z" fill="black"/>
<path d="M198.999 46.4737L201.396 42.8028C201.246 42.7529 201.096 42.7279 200.946 42.7279C198.849 42.7279 196.102 44.3261 192.706 47.5225C189.31 50.7189 187.611 52.9664 187.611 54.2649C187.611 54.6145 187.811 54.7893 188.211 54.7893C189.459 54.7893 191.357 53.7405 193.904 51.6429C196.452 49.4953 198.15 47.7722 198.999 46.4737ZM215.705 45.0503C205.317 53.4408 199.024 57.6361 196.826 57.6361C195.977 57.6361 195.553 57.1367 195.553 56.1378C195.553 55.1389 195.927 53.4658 196.676 51.1184C196.676 51.0685 196.626 51.0435 196.526 51.0435C190.783 55.7882 186.962 58.1605 185.064 58.1605C183.766 58.1605 183.117 57.686 183.117 56.7371C183.117 54.6395 185.364 51.5679 189.859 47.5225C194.404 43.4771 198.025 41.4544 200.722 41.4544C201.071 41.4544 201.446 41.7041 201.845 42.2035C202.994 40.5054 209.437 31.2908 221.174 14.5597C222.422 13.0114 223.421 12.2373 224.17 12.2373C224.969 12.2373 225.369 12.487 225.369 12.9865C225.369 14.2351 221.074 20.1284 212.483 30.6665C209.287 34.662 206.34 38.8323 203.643 43.1774C200.996 47.4726 199.673 50.7439 199.673 52.9913C199.673 53.9403 199.948 54.4147 200.497 54.4147C201.146 54.4147 202.295 53.8404 203.943 52.6917C207.339 50.2444 210.311 47.997 212.858 45.9493L214.281 44.7506C214.631 44.5009 214.956 44.3761 215.255 44.3761C215.555 44.3761 215.705 44.5509 215.705 44.9005V45.0503Z" fill="black"/>
<path d="M178.294 46.4737L180.692 42.8028C180.542 42.7529 180.392 42.7279 180.242 42.7279C178.145 42.7279 175.398 44.3261 172.002 47.5225C168.605 50.7189 166.907 52.9664 166.907 54.2649C166.907 54.6145 167.107 54.7893 167.507 54.7893C168.755 54.7893 170.653 53.7405 173.2 51.6429C175.747 49.4953 177.445 47.7722 178.294 46.4737ZM195.001 45.0503C184.612 53.4408 178.319 57.6361 176.122 57.6361C175.273 57.6361 174.848 57.1367 174.848 56.1378C174.848 55.1389 175.223 53.4658 175.972 51.1184C175.972 51.0685 175.922 51.0435 175.822 51.0435C170.079 55.7882 166.258 58.1605 164.36 58.1605C163.062 58.1605 162.412 57.686 162.412 56.7371C162.412 54.6395 164.66 51.5679 169.155 47.5225C173.7 43.4771 177.321 41.4544 180.018 41.4544C180.367 41.4544 180.742 41.7041 181.141 42.2035C182.29 40.5054 188.733 31.2908 200.469 14.5597C201.718 13.0114 202.717 12.2373 203.466 12.2373C204.265 12.2373 204.665 12.487 204.665 12.9865C204.665 14.2351 200.37 20.1284 191.779 30.6665C188.583 34.662 185.636 38.8323 182.939 43.1774C180.292 47.4726 178.969 50.7439 178.969 52.9913C178.969 53.9403 179.243 54.4147 179.793 54.4147C180.442 54.4147 181.591 53.8404 183.239 52.6917C186.635 50.2444 189.607 47.997 192.154 45.9493L193.577 44.7506C193.927 44.5009 194.251 44.3761 194.551 44.3761C194.851 44.3761 195.001 44.5509 195.001 44.9005V45.0503Z" fill="black"/>
<path d="M172.84 44.7507C173.189 44.501 173.514 44.3762 173.814 44.3762C174.113 44.3762 174.263 44.551 174.263 44.9006V45.0504C169.069 49.3456 164.749 52.5669 161.303 54.7145C157.857 56.8621 154.735 57.9359 151.938 57.9359C149.691 57.9359 148.567 56.8371 148.567 54.6396C148.567 51.3932 150.215 48.072 153.511 44.6758C156.808 41.2297 159.58 39.5067 161.827 39.5067C163.076 39.5067 163.7 40.2059 163.7 41.6043C163.45 44.3512 159.505 48.047 151.863 52.6918V53.4409C151.863 55.0891 152.712 55.9131 154.41 55.9131C156.158 55.9131 158.031 55.3388 160.029 54.1901C163.925 51.8927 167.571 49.2706 170.967 46.324L172.84 44.7507ZM159.879 41.829C158.781 41.829 157.357 42.753 155.609 44.6009C153.911 46.4488 152.762 48.5465 152.163 50.8938C154.56 49.4454 156.583 47.9222 158.231 46.324C159.879 44.6758 160.703 43.5271 160.703 42.8778C160.703 42.1786 160.429 41.829 159.879 41.829Z" fill="black"/>
<path d="M127.63 57.8608C127.031 57.8608 126.731 57.5112 126.731 56.812C126.731 55.2637 129.353 49.0957 134.597 38.3079C139.891 27.4701 142.538 21.2022 142.538 19.5041C142.538 18.8049 142.164 18.4553 141.414 18.4553C139.267 18.4553 134.497 21.7266 127.106 28.2692C123.709 35.9605 119.04 43.552 113.096 51.0435C107.153 58.535 102.633 62.2808 99.5367 62.2808C98.4878 62.2808 97.9634 61.6565 97.9634 60.4079C98.8125 56.7621 101.584 52.1922 106.279 46.6984C110.974 41.2046 116.468 35.7358 122.76 30.2919C125.358 24.3486 126.656 19.7039 126.656 16.3576C126.656 7.66745 120.538 3.32235 108.302 3.32235C105.005 3.32235 102.134 3.59704 99.6865 4.14642C94.9918 5.09535 92.4447 6.76846 92.0451 9.16576C92.145 11.9626 94.9169 13.9853 100.361 15.2339C102.658 15.7333 104.956 16.2578 107.253 16.8071C109.55 17.3565 111.498 18.2056 113.096 19.3543C114.695 20.503 115.494 21.9763 115.494 23.7743C115.494 24.1738 115.344 24.7232 115.044 25.4224C114.744 26.0717 114.37 26.3963 113.92 26.3963C113.521 26.3963 113.321 26.1466 113.321 25.6472C113.321 25.3475 113.421 25.0229 113.621 24.6733C113.87 24.3237 113.995 24.049 113.995 23.8492C113.995 22.4508 111.049 21.0274 105.155 19.579C102.658 18.9797 100.161 18.3054 97.6638 17.5563C95.2165 16.7572 93.1439 15.6834 91.4458 14.3349C89.6978 12.9365 88.8237 11.4132 88.8237 9.76508C88.8237 8.11694 89.6478 6.76846 91.2959 5.71964C92.8941 4.62088 94.9169 3.82179 97.3641 3.32235C102.109 2.37342 106.304 1.89896 109.95 1.89896C116.143 1.89896 121.087 3.14755 124.783 5.64473C128.479 8.14191 130.327 11.8377 130.327 16.7322C130.327 18.9797 129.603 22.0013 128.154 25.797C136.195 19.3543 141.339 16.1329 143.587 16.1329C144.236 16.1329 144.786 16.3826 145.235 16.882C145.735 17.3815 145.984 18.0058 145.984 18.7549C145.984 19.4541 145.51 21.0773 144.561 23.6244C143.612 26.1716 141.439 31.066 138.043 38.3079C134.697 45.5497 133.024 49.2206 133.024 49.3204C133.024 49.4203 133.099 49.5202 133.249 49.6201C133.548 49.6201 134.023 49.1706 134.672 48.2716C139.517 41.5292 146.783 33.7131 156.472 24.8231C166.161 15.8832 174.552 9.86497 181.644 6.76846C183.092 6.16914 184.191 5.86947 184.94 5.86947C185.689 5.86947 186.064 6.14416 186.064 6.69355C186.064 7.19298 185.739 7.64248 185.09 8.04203C184.441 8.39163 183.317 9.11581 181.719 10.2146C180.171 11.2634 179.147 12.0125 178.647 12.462C178.148 12.9115 177.798 13.1363 177.599 13.1363C177.399 13.1363 177.274 12.9864 177.224 12.6868C177.174 12.3871 177.049 12.2373 176.849 12.2373C176.7 12.2373 176.425 12.3122 176.025 12.462C169.982 15.3088 162.291 21.2271 152.951 30.217C143.112 39.7562 136.17 47.4975 132.125 53.4408C130.677 55.5384 129.628 56.787 128.978 57.1866C128.379 57.6361 127.93 57.8608 127.63 57.8608ZM101.559 59.5839C103.407 59.5839 106.329 56.9119 110.324 51.5679C114.37 46.174 117.991 40.2557 121.187 33.8129C115.643 39.1569 110.899 44.2262 106.953 49.0208C103.058 53.8154 101.11 57.1866 101.11 59.1344C101.11 59.434 101.26 59.5839 101.559 59.5839Z" fill="black"/>
<path d="M87.0334 44.7506C87.383 44.5009 87.7076 44.376 88.0073 44.376C88.3069 44.376 88.4568 44.5508 88.4568 44.9004V45.0503C84.711 48.0469 81.0152 50.8687 77.3693 53.5157C73.7234 56.1128 71.0514 57.4113 69.3533 57.4113C68.1047 57.4113 67.4805 56.7371 67.4805 55.3886C67.4805 54.0401 68.0798 52.6916 69.2784 51.3432C70.4771 49.9947 71.6507 48.821 72.7994 47.8221C73.9981 46.8233 74.5974 46.174 74.5974 45.8743C74.5974 45.5247 74.3976 45.1501 73.9981 44.7506C73.6485 44.3011 73.3488 44.0014 73.0991 43.8516C72.2501 44.7006 70.4022 46.2489 67.5554 48.4964L67.2557 47.3726C70.4022 44.8754 72.2251 43.2023 72.7245 42.3533V41.6791C72.7245 40.4305 72.8494 39.5814 73.0991 39.1319C73.3488 38.6824 73.9482 38.0581 74.8971 37.259C75.846 36.4599 76.4953 36.0604 76.8449 36.0604C77.1945 36.0604 77.4941 36.1853 77.7439 36.435C78.0435 36.6847 78.1934 36.9344 78.1934 37.1841C78.1934 37.4338 78.0935 37.7335 77.8937 38.0831C77.7439 38.3828 77.5691 38.6575 77.3693 38.9072C77.2195 39.107 76.9947 39.3816 76.6951 39.7313C76.3954 40.0309 76.1956 40.2557 76.0957 40.4055C76.0458 40.5054 75.9709 40.7052 75.871 41.0048C75.821 41.3045 75.6712 41.5542 75.4215 41.754C75.1718 41.9537 75.0469 42.2035 75.0469 42.5031C75.0469 42.8028 75.2467 43.477 75.6462 44.5258C76.0458 45.5247 76.2456 46.2739 76.2456 46.7733C76.2456 47.2228 75.3216 48.3465 73.4737 50.1445C71.6258 51.8925 70.7018 53.3159 70.7018 54.4147C70.7018 55.014 70.9765 55.3137 71.5259 55.3137C72.2251 55.3137 73.5236 54.6894 75.4215 53.4408L76.3205 52.8415C79.5668 50.594 82.6134 48.3216 85.4602 46.0242L87.0334 44.7506Z" fill="black"/>
<path d="M50.3201 56.2127C50.3201 55.4635 50.6697 54.4896 51.3689 53.291C52.1181 52.0923 52.5176 51.3931 52.5676 51.1933C52.6175 50.9936 52.5676 50.8937 52.4177 50.8937C52.2679 50.8937 52.0432 51.0435 51.7435 51.3432C51.4938 51.5929 49.9705 52.6417 47.1737 54.4896C44.4268 56.2876 42.5289 57.1866 41.4801 57.1866C40.7809 57.1866 40.4313 56.7371 40.4313 55.8381C40.4313 54.9391 41.8297 52.6167 44.6265 48.871C47.4234 45.1252 49.3962 43.2523 50.5449 43.2523C50.7946 43.2523 51.0193 43.3772 51.2191 43.6269C51.4688 43.8266 51.5937 44.0014 51.5937 44.1513C51.5937 44.2512 50.2951 45.7744 47.6981 48.7211C45.1509 51.6678 43.8774 53.5657 43.8774 54.4147C43.8774 54.6145 43.9773 54.7144 44.177 54.7144C45.126 54.7144 47.1737 53.4408 50.3201 50.8937C53.4666 48.3465 55.6891 46.3738 56.9876 44.9753C58.3361 43.5769 59.3849 42.8777 60.134 42.8777C60.8832 42.8777 61.2578 43.2024 61.2578 43.8516C61.2578 44.2512 61.1079 44.6507 60.8083 45.0503C60.5086 45.4498 59.9343 46.174 59.0852 47.2228C58.2861 48.2217 57.537 49.1706 56.8378 50.0696C54.89 52.5668 53.9161 54.14 53.9161 54.7893C53.9161 55.3886 54.1658 55.6883 54.6652 55.6883C55.2146 55.6883 56.5131 54.9891 58.5608 53.5906C62.3565 51.0935 65.8276 48.5713 68.9741 46.0242L70.6222 44.6757C70.9718 44.426 71.2715 44.3011 71.5212 44.3011C71.7709 44.3011 71.8958 44.4509 71.8958 44.7506V44.9753C72.0955 44.9753 70.7471 46.0741 67.8503 48.2716C65.0035 50.4692 61.932 52.6667 58.6357 54.8642C55.3894 57.0617 53.3417 58.1605 52.4927 58.1605C51.0443 58.1605 50.3201 57.5112 50.3201 56.2127Z" fill="black"/>
<path d="M41.0798 1C42.9277 1 44.2762 1.39955 45.1252 2.19865C46.0242 2.99775 46.4737 4.02159 46.4737 5.27018C46.4737 6.51877 46.174 7.64251 45.5747 8.64138C48.1218 9.88997 49.3954 12.3122 49.3954 15.9082C49.3954 20.7527 47.3227 26.6211 43.1774 33.5133C39.082 40.3556 34.1376 46.0991 28.3441 50.7439C30.4418 50.644 32.6143 50.1445 34.8618 49.2456C37.1592 48.3466 39.0071 47.4726 40.4055 46.6235C41.804 45.7745 42.5781 45.35 42.7279 45.35C42.9277 45.35 43.0276 45.5497 43.0276 45.9493C43.0276 46.9482 41.1297 48.2217 37.334 49.77C33.5383 51.2683 30.1671 52.0174 27.2204 52.0174H26.696C21.0024 56.2127 15.6834 58.3103 10.739 58.3103C7.44273 58.3103 4.99549 57.4113 3.39729 55.6134C1.7991 53.7655 1 51.0186 1 47.3727C1 43.7268 2.19865 39.1819 4.59594 33.7381C7.04318 28.2942 10.1147 23.175 13.8105 18.3804C17.5563 13.5359 21.9014 9.44048 26.8458 6.09425C31.7903 2.69808 36.5349 1 41.0798 1ZM34.3374 19.8787L34.4123 20.4031C34.4123 21.0024 34.2375 21.3021 33.8879 21.3021C33.2386 21.3021 32.914 20.6279 32.914 19.2794C32.914 17.881 33.3885 16.6074 34.3374 15.4587C35.3363 14.31 36.7596 13.1613 38.6076 12.0126C40.4555 10.8139 41.6791 9.93991 42.2784 9.39054C41.4793 9.19076 40.8301 9.09087 40.3306 9.09087C36.0355 9.09087 31.9151 10.714 27.9696 13.9604C24.024 17.1568 20.9275 21.0274 18.68 25.5723C16.4326 30.0672 15.3089 34.2125 15.3089 38.0082C15.3089 45.9992 19.0297 50.2444 26.4713 50.7439C31.7653 46.4487 36.3851 40.7801 40.3306 33.7381C44.2762 26.696 46.2489 20.7777 46.2489 15.9831C46.2489 13.436 45.5997 11.5881 44.3011 10.4394C43.4022 11.4382 42.0537 12.562 40.2557 13.8105C38.5077 15.0092 37.0843 16.108 35.9855 17.1068C34.8868 18.0558 34.3374 18.9797 34.3374 19.8787ZM13.0614 56.4374C16.7572 56.4374 20.7028 54.9391 24.898 51.9425C20.4031 51.5929 17.0569 50.2444 14.8594 47.8971C12.6618 45.5497 11.5631 42.678 11.5631 39.2818C11.5631 35.8357 12.3872 32.2897 14.0353 28.6438C15.7334 24.948 17.9059 21.5768 20.5529 18.5302C23.2 15.4337 26.3714 12.8616 30.0672 10.8139C33.813 8.76624 37.5587 7.74239 41.3045 7.74239C42.0537 7.74239 42.7779 7.81731 43.4771 7.96714C44.1263 7.01821 44.451 6.06928 44.451 5.12035C44.451 4.12148 44.0514 3.3973 43.2523 2.9478C42.4532 2.49831 41.5293 2.27356 40.4804 2.27356C36.435 2.27356 32.1898 3.89673 27.7448 7.14307C23.2998 10.3395 19.4292 14.2351 16.1329 18.8299C12.8366 23.4247 10.1147 28.3192 7.96714 33.5133C5.81956 38.6575 4.74577 42.9277 4.74577 46.3239C4.74577 53.0662 7.51764 56.4374 13.0614 56.4374Z" fill="black"/>
</g>
</g>

<mask id="mask" class="handwriting_mask_line">
<path id="mask-path" class="handwriting_mask_line" d="M34 21.8657C33.3333 20.3657 33.7 15.9657 40.5 12.3657C49 7.86573 48 -2.13427 32.5 3.86573C17 9.86573 -9.5 50.8657 8.5 57.3657C22.9 62.5657 37.8333 41.8657 43.5 30.8657C46.8333 24.1991 51.3 10.5657 42.5 9.36573C31.5 7.86573 21.9781 14.6705 15.5 30.8657C7.5 50.8657 25.0192 58.1862 42 46.8657C43.5 45.8657 55 41.8657 49 45.3657C44.6667 50.6991 37.4 59.8657 45 55.8657C52.6 51.8657 59.5 45.0324 61.5 42.8657C57.8333 45.5324 52 53.3657 52 56.8657C52 62.0135 78 40.3657 77.5 37.8657C77 35.3657 72.5 41.8657 74.5 44.3657C76.1 46.3657 75.5 47.1991 75 47.3657C71.8333 50.1991 66.2 56.0657 69 56.8657C71.8 57.6657 88 44.8657 88 44.8657C96.5 40.8657 113.6 31.4657 114 25.8657C114.5 18.8657 105.5 18.3657 104.5 17.8657C103.5 17.3657 89 16.8657 90.5 9.36573C92 1.86573 110 2.86573 111.5 2.86573C113 2.86573 129.5 4.36573 128.5 16.3657C127.619 26.9357 122.5 37.3657 114 49.8657C105.5 62.3657 102.5 61.8657 100 61.8657C97.5 61.8657 106.51 42.6085 133.5 22.3657C157.5 4.36573 136 38.8657 126.5 58.3657C142.667 40.5324 169 11.8657 185.5 7.86573C202 3.86573 162.667 40.5324 148 53.8657C152.833 51.6991 162.5 46.3657 162.5 42.3657C162.5 37.3657 149 45.3657 150 54.8657C150.632 60.8657 165 53.3657 172 47.3657L181 43.3657C180.333 42.1991 179 41.6552 170.5 48.3657C161 55.8657 163 58.8657 166.5 56.8657C170 54.8657 175.5 53.3657 182.5 42.3657C188.1 33.5657 199.833 18.1991 204.5 12.3657C196 23.0324 177.9 47.0657 177.5 51.8657C177 57.8657 174.5 59.3657 186 51.8657C195.2 45.8657 200.167 43.0324 201.5 42.3657C199.167 42.5324 193.8 43.7657 191 47.3657C187.5 51.8657 180.5 59.8657 189.5 55.8657C196.7 52.6657 201.833 45.5324 203.5 42.3657L225 11.8657C216.833 22.1991 200.682 47.885 198 52.8657C194.5 59.3657 200 56.3657 206.5 51.8657C211.7 48.2657 217.333 43.6991 219 42.3657C215.333 46.0324 207.6 54.8657 210 56.8657C212.4 58.8657 225.667 48.6991 232 43.3657C234 42.3657 237.4 40.9657 235 43.3657C232.6 45.7657 226.5 54.3657 224.5 57.8657C231.5 52.6991 246.8 41.9657 246 44.3657C245 47.3657 238.5 53.8657 238.5 56.8657C238.5 59.2657 249.5 52.5324 255 48.8657L266.5 46.3657C270.333 44.0324 275.7 39.6657 266.5 40.8657C255 42.3657 246 59.8657 253 56.8657C258.6 54.4657 263 50.5324 264.5 48.8657C255.833 60.0324 238.5 82.9657 238.5 85.3657C238.5 88.3657 236.5 88.8657 236.5 86.3657C236.5 83.8657 247.5 67.8657 257 61.8657C266.5 55.8657 279.5 46.3657 280.5 45.3657C281.3 44.5657 245.167 36.1991 225 30.8657L220 39.8657" stroke="#63E94B" stroke-opacity="0.4" stroke-width="4"/>
</mask>
</svg>
