<svg width="2710" height="204" viewBox="0 0 2710 204" fill="none" xmlns="http://www.w3.org/2000/svg">
<path d="M42 100H2683" stroke="#CAC9C9" stroke-width="11"/>
<path d="M0 99.5L29.5 90.5L59 99.5H73.5L96.25 90.25L109 81L135.5 99.5H143.5L170.25 85.25L178 71L190.5 99.5L197 88L199.75 93.75L202.5 88L207.5 99.5H264.5L338 83.5L348 99.5H352.5L364 83.5L371.66 93.7128L379 83.5L391.5 99.5L379 114L371.66 104.745L364 114L352.5 99.5H348L338 114L264.5 99.5H207.5L202.5 111L199.809 105.372L197 111.5L190.5 99.5L178 129L170.25 114.25L143.5 99.5H135.5L109 119L96.25 109.25L73.5 99.5H59L29.5 109L0 99.5Z" fill="#CAC9C9"/>
<path d="M490.5 59.5C454.9 59.5 423 66.3333 418 69.5C423.167 69.5 455.3 63 490.5 63C572.5 63 689.5 170.5 817.5 170.5C945.5 170.5 1034.49 129.277 1070.5 108C1125.5 75.5 1187.5 6.5 1253.5 6.5C1319.5 6.5 1349.5 52.2862 1349.5 98C1349.5 152 1323 199 1253.5 199C1199.5 199 1178.66 165.5 1171.5 132.5C1171.5 158.5 1193 203.5 1253.5 203.5C1340.5 203.5 1355 137 1355 98C1355 59 1331.5 0 1253.5 0C1191.1 0 1110.5 65 1070.5 92C1030.5 119 921.1 161 817.5 161C688 161 571.5 59.5 490.5 59.5Z" fill="#CAC9C9"/>
<path d="M2710 99.5L2680.5 90.5L2651 99.5H2636.5L2613.75 90.25L2601 81L2574.5 99.5H2566.5L2539.75 85.25L2532 71L2519.5 99.5L2513 88L2510.25 93.75L2507.5 88L2502.5 99.5H2445.5L2372 83.5L2362 99.5H2357.5L2346 83.5L2338.34 93.7128L2331 83.5L2318.5 99.5L2331 114L2338.34 104.745L2346 114L2357.5 99.5H2362L2372 114L2445.5 99.5H2502.5L2507.5 111L2510.19 105.372L2513 111.5L2519.5 99.5L2532 129L2539.75 114.25L2566.5 99.5H2574.5L2601 119L2613.75 109.25L2636.5 99.5H2651L2680.5 109L2710 99.5Z" fill="#CAC9C9"/>
<path d="M2219.5 59.5C2255.1 59.5 2287 66.3333 2292 69.5C2286.83 69.5 2254.7 63 2219.5 63C2137.5 63 2020.5 170.5 1892.5 170.5C1764.5 170.5 1675.51 129.277 1639.5 108C1584.5 75.5 1522.5 6.5 1456.5 6.5C1390.5 6.5 1360.5 52.2862 1360.5 98C1360.5 152 1387 199 1456.5 199C1510.5 199 1531.34 165.5 1538.5 132.5C1538.5 158.5 1517 203.5 1456.5 203.5C1369.5 203.5 1355 137 1355 98C1355 59 1378.5 0 1456.5 0C1518.9 0 1599.5 65 1639.5 92C1679.5 119 1788.9 161 1892.5 161C2022 161 2138.5 59.5 2219.5 59.5Z" fill="#CAC9C9"/>
</svg>
