<svg width="421" height="162" viewBox="0 0 421 162" fill="none" xmlns="http://www.w3.org/2000/svg">
<path d="M59.5 90.5V158.5H88.5V88.5C88.5 86.9 84.5 79.5 82.5 76L35 0H0L59.5 90.5Z" fill="white"/>
<path d="M114 0L82.5 50C77 69 94 74 104 66.5L147.5 0H114Z" fill="white"/>
<path d="M258 0L204.5 55.5C191.5 72 199.167 88.6667 204.5 94L260.5 158.5H301L241.5 95C222.5 76 229 66.5 241.5 53.5L296 0H258Z" fill="white"/>
<path d="M396.5 0L345 80C336 93 335.641 100 336 107C337 126.5 355 136 366.5 136C378 136 394 130 394 107C394 88.6 382.5 84 372 78.5C363.5 73.5 367 58 378.5 57C400 59 421 75.4683 421 111C421 153 377.5 162 365 162C352.253 162 308.5 155.5 308.5 109C308.5 101 306.5 91 323 63.5L363 0H396.5Z" fill="white"/>
<path d="M162 158.5V0H190V158.5H162Z" fill="white"/>
</svg>
